<svg width="44" height="44" viewBox="0 0 44 44" fill="none" xmlns="http://www.w3.org/2000/svg">
<path d="M16.4662 22.763H19.0317V33.3246C19.0317 33.5331 19.2007 33.7021 19.4092 33.7021H23.7591C23.9676 33.7021 24.1366 33.5331 24.1366 33.3246V22.8127H27.0858C27.2776 22.8127 27.4389 22.6688 27.4608 22.4783L27.9087 18.5901C27.921 18.4831 27.8871 18.3759 27.8156 18.2957C27.7439 18.2154 27.6414 18.1694 27.5338 18.1694H24.1367V15.732C24.1367 14.9973 24.5323 14.6247 25.3127 14.6247C25.4239 14.6247 27.5338 14.6247 27.5338 14.6247C27.7423 14.6247 27.9113 14.4557 27.9113 14.2472V10.6781C27.9113 10.4696 27.7423 10.3006 27.5338 10.3006H24.4728C24.4512 10.2996 24.4032 10.2979 24.3326 10.2979C23.8014 10.2979 21.9553 10.4021 20.497 11.7437C18.8812 13.2304 19.1058 15.0105 19.1595 15.3191V18.1693H16.4662C16.2577 18.1693 16.0887 18.3383 16.0887 18.5468V22.3854C16.0887 22.5939 16.2577 22.763 16.4662 22.763Z" fill="#727272"/>
</svg>
