<svg width="44" height="44" viewBox="0 0 44 44" fill="none" xmlns="http://www.w3.org/2000/svg">
<path d="M34.952 15.1203C35.1417 14.4985 34.952 14.0425 34.0551 14.0425H31.0839C30.3279 14.0425 29.9824 14.437 29.7928 14.8702C29.7928 14.8702 28.2821 18.506 26.1415 20.8634C25.4505 21.5494 25.1348 21.766 24.7582 21.766C24.5698 21.766 24.2962 21.5494 24.2962 20.9276V15.1203C24.2962 14.3742 24.078 14.0425 23.448 14.0425H18.7792C18.3078 14.0425 18.0232 14.3875 18.0232 14.7165C18.0232 15.4225 19.0936 15.5856 19.2033 17.5753V21.8917C19.2033 22.8371 19.0312 23.0095 18.6519 23.0095C17.6452 23.0095 15.1957 19.3604 13.7419 15.1831C13.4588 14.3715 13.1729 14.0439 12.4142 14.0439H9.44438C8.59489 14.0439 8.42554 14.4383 8.42554 14.8716C8.42554 15.6498 9.43219 19.5008 13.1146 24.5941C15.5696 28.072 19.0258 29.9574 22.1745 29.9574C24.0618 29.9574 24.2948 29.5389 24.2948 28.8168V26.188C24.2948 25.3509 24.475 25.1824 25.0725 25.1824C25.5115 25.1824 26.2675 25.4017 28.0301 27.0772C30.0434 29.0642 30.3767 29.9561 31.508 29.9561H34.4778C35.3259 29.9561 35.75 29.5376 35.5061 28.7112C35.2392 27.8888 34.2773 26.6921 33.001 25.276C32.3073 24.4684 31.2709 23.5992 30.9552 23.1647C30.5149 22.6044 30.6422 22.357 30.9552 21.8596C30.9566 21.8609 34.5754 16.8305 34.952 15.1203Z" fill="#727272"/>
</svg>
